# AST/ASF file generated using VICON BodyLanguage
# -----------------------------------------------
:version 1.10
:name VICON
:units
  mass 1.0
  length 0.45
  angle deg
:documentation
   .ast/.asf automatically generated from VICON data using
   VICON BodyBuilder and BodyLanguage model FoxedUp or BRILLIANT.MOD
:root
   order TX TY TZ RX RY RZ
   axis XYZ
   position 0 0 0  
   orientation 0 0 0 
:bonedata
  begin
     id 1 
     name lhipjoint
     direction 0.662698 -0.695252 0.27831 
     length 2.53073 
     axis 0 0 0  XYZ
  end
  begin
     id 2 
     name lfemur
     direction 0.34202 -0.939693 0  
     length 7.16147  
     axis 0 0 20  XYZ
    dof rx ry rz
    limits (-160.0 20.0)
           (-70.0 70.0)
           (-60.0 70.0)
  end
  begin
     id 3 
     name ltibia
     direction 0.34202 -0.939693 0   
     length 7.63967   
     axis 0 0 20   XYZ
    dof rx
    limits (-10.0 170.0)
  end
  begin
     id 4 
     name lfoot
     direction 0.0938457 -0.257721 0.961651   
     length 1.89793   
     axis -90 7.62852e-016 20   XYZ
    dof rx rz
    limits (-45.0 90.0)
           (-70.0 20.0)
  end
  begin
     id 5 
     name ltoes
     direction -0.00116841 -0.0030592 0.999995   
     length 0.955649   
     axis -90 7.62852e-016 20   XYZ
    dof rx
    limits (-90.0 20.0)
  end
  begin
     id 6 
     name rhipjoint
     direction -0.649445 -0.705948 0.282592   
     length 2.49238  
     axis 0 0 0  XYZ 
  end
  begin
     id 7 
     name rfemur
     direction -0.34202 -0.939693 0   
     length 6.90728   
     axis 0 0 -20   XYZ
    dof rx ry rz
    limits (-160.0 20.0)
           (-70.0 70.0)
           (-70.0 60.0)
  end
  begin
     id 8 
     name rtibia
     direction -0.34202 -0.939693 0   
     length 7.72868   
     axis 0 0 -20   XYZ
    dof rx
    limits (-10.0 170.0)
 end
 begin
     id 9 
     name rfoot
     direction -0.0920068 -0.252865 0.963117   
     length 1.97476  
     axis -90 -7.62852e-016 -20   XYZ
    dof rx rz
    limits (-45.0 90.0)
           (-20.0 70.0)
  end
  begin
     id 10 
     name rtoes
     direction 0.000391322 0.00230649 0.999997   
     length 0.992641   
     axis -90 -7.62852e-016 -20   XYZ
    dof rx
    limits (-90.0 20.0)
  end
  begin
     id 11 
     name lowerback
     direction -0.00875327 0.998321 -0.0572635   
     length 2.20024   
     axis 0 0 0   XYZ
    dof rx ry rz
    limits (-20.0 45.0)
           (-30.0 30.0)
           (-30.0 30.0)
  end
  begin
     id 12 
     name upperback
     direction 0.00753931 0.999972 -0.000360425   
     length 2.20538   
     axis 0 0 0   XYZ
    dof rx ry rz
    limits (-20.0 45.0)
           (-30.0 30.0)
           (-30.0 30.0)
  end
  begin
     id 13 
     name thorax
     direction 0.0117767 0.999601 0.0256663   
     length 2.21508   
     axis 0 0 0   XYZ
    dof rx ry rz
    limits (-20.0 45.0)
           (-30.0 30.0)
           (-30.0 30.0)
  end
  begin
     id 14 
     name lowerneck
     direction 0.060228 0.994909 0.0807986   
     length 1.7607   
     axis 0 0 0   XYZ
    dof rx ry rz
    limits (-20.0 45.0)
           (-30.0 30.0)
           (-30.0 30.0)
  end
  begin
     id 15 
     name upperneck
     direction -0.0563647 0.959594 -0.275685   
     length 1.75612   
     axis 0 0 0   XYZ
    dof rx ry rz
    limits (-20.0 45.0)
           (-30.0 30.0)
           (-30.0 30.0)
  end
  begin
     id 16
     name head
     direction -0.0161544 0.99458 -0.102714  
     length 1.79288  
     axis 0 0 0   XYZ
    dof rx ry rz
    limits (-20.0 45.0)
           (-30.0 30.0)
           (-30.0 30.0)
  end
  begin
     id 17 
     name lclavicle
     direction 0.93913 0.332189 -0.087669  
     length 3.52087  
     axis 0 0 0   XYZ
    dof ry rz
    limits (-20.0 10.0)
           (0.0 20.0)
  end
  begin
     id 18 
     name lhumerus
     direction 1 -4.48974e-011 -2.70836e-027   
     length 5.35289   
     axis -180 -30 -90   XYZ
    dof rx ry rz
    limits (-60.0 90.0)
           (-90.0 90.0)
           (-90.0 90.0)
  end
  begin
     id 19
     name lradius
     direction 1 -4.48961e-011 -9.76021e-027   
     length 3.27727   
     axis -180 -30 -90   XYZ
    dof rx
    limits (-10.0 170.0)
  end
  begin
     id 20
     name lwrist
     direction 1 -4.49103e-011 -2.23668e-026   
     length 1.63864   
     axis 1.44924e-014 90 90   XYZ
    dof ry
    limits (-180.0 0.0)
 end
  begin
     id 21 
     name lhand
     direction 1 3.0697e-005 0.000161777   
     length 0.54443   
     axis 2.85318e-014 90 90   XYZ
    dof rx rz
    limits (-90.0 90.0)
           (-45.0 45.0)
  end
  begin
     id 22 
     name lfingers
     direction 1 -4.49027e-011 -8.9447e-026   
     length 0.438912   
     axis 5.70628e-014 90 90   XYZ
    dof rx
    limits (0.0 90.0)
  end
  begin
     id 23
     name lthumb
     direction 0.707058 2.6516e-005 0.707156   
     length 0.630274   
     axis -90 45 -3.53137e-014   XYZ
    dof rx rz
    limits (-45.0 45.0)
           (-45.0 45.0)
  end
  begin
     id 24 
     name rclavicle
     direction -0.95274 0.284984 -0.105215   
     length 3.43401  
     axis 0 0 0   XYZ 
    dof ry rz
    limits (-10.0 20.0)
           (-20.0 0.0)
  end
  begin
     id 25 
     name rhumerus
     direction -0.999999 -0.000575019 -0.00106829  
     length 5.52077   
     axis -180 30 90   XYZ
    dof rx ry rz
    limits (-90.0 60.0)
           (-90.0 90.0)
           (-90.0 90.0)
  end
  begin
     id 26 
     name rradius
     direction -1 -4.4879e-011 -6.35415e-027   
     length 3.32364   
     axis -180 30 90   XYZ
    dof rx
    limits (-10.0 170.0)
  end
  begin
     id 27 
     name rwrist
     direction -1 -4.49048e-011 -9.98542e-027   
     length 1.66182   
     axis 6.32482e-015 -90 -90   XYZ
    dof ry
    limits (-180.0 0.0)
  end
  begin
     id 28
     name rhand
     direction -1 -4.48978e-011 -1.99771e-026   
     length 0.732235   
     axis 1.27479e-014 -90 -90   XYZ
    dof rx rz
    limits (-90.0 90.0)
           (-45.0 45.0)
  end
  begin
     id 29
     name rfingers
     direction -1 -4.49144e-011 -3.99245e-026   
     length 0.590347   
     axis 2.5496e-014 -90 -90   XYZ
    dof rx
    limits (0.0 90.0)
  end
  begin
     id 30
     name rthumb
     direction -0.707107 -6.35121e-011 0.707107   
     length 0.847624   
     axis -90 -45 -2.82974e-014   XYZ
    dof rx rz
    limits (-45.0 45.0)
           (-45.0 45.0)
  end
:hierarchy
  begin
    root lhipjoint rhipjoint lowerback
    lhipjoint lfemur
    lfemur ltibia
    ltibia lfoot
    lfoot ltoes
    rhipjoint rfemur
    rfemur rtibia
    rtibia rfoot
    rfoot rtoes
    lowerback upperback
    upperback thorax
    thorax lowerneck lclavicle rclavicle
    lowerneck upperneck
    upperneck head
    lclavicle lhumerus
    lhumerus lradius
    lradius lwrist
    lwrist lhand lthumb
    lhand lfingers
    rclavicle rhumerus
    rhumerus rradius
    rradius rwrist
    rwrist rhand rthumb
    rhand rfingers
  end

#!OML:ASF G:\Work\Work\Patient Classification 1\Elijah\terrain1\Elijah.ASF
:FULLY-SPECIFIED
:DEGREES
31
root 16.2497 24.4998 -6.00471 6.8362 -5.19172 -1.13402
lowerback 7.41049 -0.0586591 -3.99065
upperback 0.597184 -0.499047 -2.36631
thorax -3.52754 -0.204802 -0.155778
lowerneck -14.3325 15.8883 11.001
upperneck 34.5231 26.513 -13.6238
head 19.3221 10.5389 -2.08311
rclavicle -3.97569e-016 -2.38542e-014
rhumerus -37.8021 -4.19467 -85.152
rradius 32.8915
rwrist -0.59183
rhand -13.2731 23.1544
rfingers 7.12502
rthumb 12.8299 -6.43136
lclavicle -3.97569e-016 -2.38542e-014
lhumerus -21.0823 28.5018 72.911
lradius 24.7789
lwrist -4.65195
lhand -12.4894 26.1367
lfingers 7.12502
lthumb 13.5854 55.6735
rfemur -34.1192 -17.0928 21.867
rtibia 97.3953
rfoot 18.5397 3.22857
rtoes -10.0427
lfemur -9.23313 5.08896 -24.1122
ltibia 16.8618
lfoot -2.26951 -4.73492
ltoes -7.32439
32
root 16.2472 24.5503 -5.93273 6.79218 -4.77305 -1.15354
lowerback 6.81483 -0.257154 -3.62129
upperback 1.11329 -0.680132 -2.45335
thorax -2.66002 -0.315616 -0.437029
lowerneck -15.4415 15.8535 10.2966
upperneck 34.8059 26.3458 -12.9288
head 19.411 10.3721 -1.64161
rclavicle -6.55989e-015 3.33958e-014
rhumerus -37.0715 -4.75526 -85.0755
rradius 32.6427
rwrist -0.214389
rhand -12.9027 23.0344
rfingers 7.12502
rthumb 13.1869 -6.52858
lclavicle -6.55989e-015 3.33958e-014
lhumerus -19.8714 28.8568 73.3933
lradius 24.5613
lwrist -4.72117
lhand -12.6356 25.5036
lfingers 7.12502
lthumb 13.4444 55.0497
rfemur -35.3556 -18.0942 22.0525
rtibia 98.8011
rfoot 18.7635 4.47247
rtoes -11.5545
lfemur -8.29501 4.78646 -24.0229
ltibia 15.4323
lfoot -0.906099 -4.74573
ltoes -8.14608
33
root 16.2439 24.5833 -5.87317 7.11851 -5.62494 -0.923058
lowerback 6.7213 0.0957795 -4.03597
upperback 0.966342 -0.244653 -2.51365
thorax -2.76631 -0.09316 -0.30677
lowerneck -16.5515 15.664 9.80147
upperneck 35.5397 25.9649 -12.1096
head 19.7587 10.1409 -1.23754
rclavicle 1.2921e-014 -1.43125e-014
rhumerus -37.2293 -5.25544 -84.7625
rradius 32.675
rwrist 0.0740592
rhand -12.7429 22.533
rfingers 7.12502
rthumb 13.341 -7.01997
lclavicle 1.2921e-014 -1.43125e-014
lhumerus -20.1355 28.1401 73.8475
lradius 25.3525
lwrist -3.77765
lhand -12.9472 26.072
lfingers 7.12502
lthumb 13.1441 55.6377
rfemur -37.5141 -17.625 22.0443
rtibia 100.255
rfoot 20.2133 5.14828
rtoes -7.72351
lfemur -7.74074 5.3608 -24.4309
ltibia 14.0109
lfoot 0.326712 -4.41547
ltoes -9.2534
34
root 16.254 24.6448 -5.76198 6.28707 -5.16583 -0.639739
lowerback 7.00451 -0.146637 -4.27036
upperback 1.15603 -0.589562 -2.40957
thorax -2.71627 -0.264279 -0.0362417
lowerneck -15.1715 15.9499 10.0735
upperneck 35.1784 26.7125 -12.9497
head 19.6046 10.4787 -1.548
rclavicle 0 1.74931e-014
rhumerus -37.8444 -4.72924 -84.5537
rradius 32.908
rwrist 0.0317974
rhand -12.7497 22.4961
rfingers 7.12502
rthumb 13.3344 -7.05729
lclavicle 0 1.74931e-014
lhumerus -20.8849 28.2702 73.8979
lradius 25.9002
lwrist -3.27118
lhand -12.8747 25.1013
lfingers 7.12502
lthumb 13.214 54.6625
rfemur -37.4394 -18.6767 21.4762
rtibia 101.015
rfoot 17.5274 7.03574
rtoes -18.4928
lfemur -5.67387 5.02278 -24.6335
ltibia 12.4115
lfoot 1.46443 -4.28336
ltoes -10.3506
35
root 16.2423 24.6914 -5.71627 6.48297 -3.9451 -0.454097
lowerback 6.72389 -0.65786 -4.47637
upperback 1.14716 -1.26133 -2.28425
thorax -2.54065 -0.598277 0.265124
lowerneck -14.1244 15.7178 10.4411
upperneck 34.2257 26.3571 -13.7501
head 18.9817 10.4335 -2.12482
rclavicle -2.78299e-015 -3.97569e-015
rhumerus -37.9881 -4.30749 -84.5169
rradius 32.8901
rwrist -0.132142
rhand -12.6071 22.3544
rfingers 7.12502
rthumb 13.4719 -7.1899
lclavicle -2.78299e-015 -3.97569e-015
lhumerus -20.984 28.5479 74.026
lradius 26.1373
lwrist -3.078
lhand -12.4698 23.4415
lfingers 7.12502
lthumb 13.6043 52.977
rfemur -38.9529 -20.2094 21.7514
rtibia 101.862
rfoot 14.4071 7.83986
rtoes -22.1962
lfemur -5.13361 4.19574 -24.6851
ltibia 10.9366
lfoot 3.05208 -4.38171
ltoes -10.6803
36
root 16.2497 24.7209 -5.6294 6.02512 -3.71062 -0.371883
lowerback 8.0571 -0.891139 -5.30576
upperback 0.441653 -1.73732 -1.62883
thorax -3.95701 -0.779545 1.48376
lowerneck -12.9319 15.8076 10.4906
upperneck 34.4753 26.7555 -14.0152
head 18.9934 10.6415 -2.24785
rclavicle -2.0276e-014 -8.74653e-015
rhumerus -39.3583 -2.71873 -83.9293
rradius 32.8921
rwrist -0.443797
rhand -12.6338 21.8087
rfingers 7.12502
rthumb 13.4462 -7.73732
lclavicle -2.0276e-014 -8.74653e-015
lhumerus -22.9432 29.3129 73.8758
lradius 26.5952
lwrist -2.72222
lhand -12.1011 22.8583
lfingers 7.12502
lthumb 13.9596 52.3696
rfemur -38.9575 -20.5314 21.3823
rtibia 102.418
rfoot 13.3169 7.89112
rtoes -19.7518
lfemur -3.47747 4.04861 -24.7414
ltibia 9.08365
lfoot 4.34725 -4.13985
ltoes -10.3495
37
root 16.254 24.7432 -5.56521 6.25433 -4.71653 -0.297508
lowerback 7.17913 -0.0672055 -4.43306
upperback 1.34487 -0.501967 -2.51837
thorax -2.62046 -0.223142 -0.0652505
lowerneck -14.7048 15.7124 10.7867
upperneck 34.049 26.1457 -13.6856
head 19.0304 10.3717 -2.14341
rclavicle 8.74653e-015 0
rhumerus -37.936 -5.69373 -84.0993
rradius 32.6243
rwrist -0.0288144
rhand -12.7292 21.4983
rfingers 7.12502
rthumb 13.3543 -8.05375
lclavicle 8.74653e-015 0
lhumerus -19.7612 27.6859 75.0953
lradius 26.2436
lwrist -2.4201
lhand -12.1981 23.2488
lfingers 7.12502
lthumb 13.8661 52.7666
rfemur -41.048 -19.637 21.809
rtibia 102.984
rfoot 14.5951 8.67907
rtoes -22.4244
lfemur -2.78204 5.07335 -25.0138
ltibia 7.6116
lfoot 5.33552 -3.90987
ltoes -10.4612
38
root 16.2431 24.7665 -5.49486 6.16428 -4.90363 -0.0253569
lowerback 7.49883 -0.112481 -5.34408
upperback 0.870469 -0.668034 -2.17761
thorax -3.27139 -0.276219 0.813514
lowerneck -13.7582 15.6713 10.8752
upperneck 33.9038 26.2672 -14.1066
head 18.8609 10.4624 -2.38511
rclavicle -1.59028e-014 -7.95139e-015
rhumerus -38.8439 -5.01724 -83.5999
rradius 32.5501
rwrist 0.00995982
rhand -12.5259 21.614
rfingers 7.12502
rthumb 13.5502 -7.92505
lclavicle -1.59028e-014 -7.95139e-015
lhumerus -21.2039 27.9505 74.9743
lradius 26.8679
lwrist -1.8951
lhand -12.4919 23.7458
lfingers 7.12502
lthumb 13.5829 53.2827
rfemur -42.1756 -19.549 21.8469
rtibia 103.275
rfoot 16.2177 8.97117
rtoes -21.9802
lfemur -1.81223 5.29608 -25.295
ltibia 6.31707
lfoot 6.22629 -3.66876
ltoes -10.2255
39
root 16.2438 24.7896 -5.41306 5.90606 -3.96734 0.224625
lowerback 7.22986 -0.474663 -5.35809
upperback 1.15223 -1.11686 -2.22949
thorax -2.80515 -0.51306 0.80757
lowerneck -8.94703 14.54 13.7128
upperneck 30.6075 24.6101 -17.5154
head 16.8462 10.2976 -4.99722
rclavicle 5.56597e-015 3.97569e-015
rhumerus -38.7471 -5.16956 -83.5094
rradius 32.3138
rwrist 0.373913
rhand -12.451 22.1059
rfingers 7.12502
rthumb 13.6224 -7.42833
lclavicle 5.56597e-015 3.97569e-015
lhumerus -21.5277 27.757 75.0494
lradius 27.5647
lwrist -1.22906
lhand -12.4161 22.9743
lfingers 7.12502
lthumb 13.656 52.5063
rfemur -42.3663 -20.5915 21.6016
rtibia 103.263
rfoot 16.3691 9.09218
rtoes -20.1183
lfemur -0.879375 4.42412 -25.4424
ltibia 5.43193
lfoot 7.07356 -3.39883
ltoes -8.77669
40
root 16.2384 24.804 -5.33819 6.01361 -3.90987 0.126614
lowerback 7.27757 -0.529288 -5.6251
upperback 0.953376 -1.21289 -1.90432
thorax -3.02036 -0.548322 1.3038
lowerneck -13.2984 15.4141 10.8473
upperneck 34.0423 25.8261 -13.9267
head 18.6849 10.339 -2.46935
rclavicle -1.51076e-014 -4.77083e-015
rhumerus -39.2484 -4.58503 -83.1833
rradius 32.3701
rwrist 0.422035
rhand -12.5782 22.3689
rfingers 7.12502
rthumb 13.4998 -7.17351
lclavicle -1.51076e-014 -4.77083e-015
lhumerus -22.2867 27.8426 75.2317
lradius 28.1315
lwrist -0.521708
lhand -12.1177 22.4966
lfingers 7.12502
lthumb 13.9436 52.0091
rfemur -43.211 -20.3878 21.9703
rtibia 103.123
rfoot 15.4631 8.53679
rtoes -18.0394
lfemur -0.130171 4.42909 -25.3259
ltibia 4.06047
lfoot 8.13961 -3.05699
ltoes -7.79706
